<svg width="16" height="16" viewBox="0 0 16 16" fill="none" xmlns="http://www.w3.org/2000/svg">
<path d="M0.810162 7.02831C0.362797 7.02831 7.87692e-08 7.39455 7.33839e-08 7.84615C6.79986e-08 8.29775 0.362797 8.66398 0.810162 8.66398L13.2342 8.664L9.33126 12.6043C9.01501 12.9235 9.01501 13.4413 9.33126 13.7606C9.64751 14.0798 10.1604 14.0798 10.4767 13.7606L15.7626 8.42438C16.0789 8.10514 16.0792 7.58699 15.763 7.26775L15.7456 7.25053L10.4767 1.93174C10.1604 1.6125 9.64751 1.6125 9.33127 1.93174C9.01502 2.25098 9.01502 2.76876 9.33127 3.08801L13.2343 7.02831L0.810162 7.02831Z" fill="white"/>
</svg>
