<svg width="24" height="24" viewBox="0 0 24 24" fill="none" xmlns="http://www.w3.org/2000/svg">
<g clip-path="url(#clip0_984_2081)">
<path d="M12 23.75C18.4893 23.75 23.75 18.4893 23.75 12C23.75 5.51065 18.4893 0.25 12 0.25C5.51065 0.25 0.25 5.51065 0.25 12C0.25 18.4893 5.51065 23.75 12 23.75Z" stroke="white" stroke-width="0.5"/>
<path d="M14.2793 12.0716L18.999 15.0554V8.96191L14.2793 12.0716Z" fill="white"/>
<path d="M5 8.96191V15.0554L9.71975 12.0716L5 8.96191Z" fill="white"/>
<path d="M18.1241 7.1875H5.87414C5.43752 7.1875 5.09102 7.513 5.02539 7.93213L11.9991 12.5268L18.9729 7.93213C18.9073 7.513 18.5608 7.1875 18.1241 7.1875Z" fill="white"/>
<path d="M13.4781 12.5995L12.24 13.415C12.1665 13.4631 12.0833 13.4867 11.9993 13.4867C11.9153 13.4867 11.8322 13.4631 11.7587 13.415L10.5206 12.5986L5.02734 16.0732C5.09472 16.4889 5.43947 16.8117 5.87434 16.8117H18.1243C18.5592 16.8117 18.904 16.4889 18.9713 16.0732L13.4781 12.5995Z" fill="white"/>
</g>
<defs>
<clipPath id="clip0_984_2081">
<rect width="24" height="24" fill="white"/>
</clipPath>
</defs>
</svg>
