<svg width="180" height="70" viewBox="0 0 180 70" fill="none" xmlns="http://www.w3.org/2000/svg">
<path d="M14.7941 0C6.5986 0 0 6.5986 0 14.7941V55.2059C0 63.4014 6.5986 70 14.7941 70H55.2059C63.4014 70 70 63.4014 70 55.2059V14.7941C70 6.5986 63.4014 0 55.2059 0H14.7941ZM35 14.5833C46.2931 14.5833 55.4167 23.707 55.4167 35C55.4167 46.293 46.2931 55.4167 35 55.4167C23.7069 55.4167 14.5833 46.293 14.5833 35C14.5833 23.707 23.7069 14.5833 35 14.5833Z" fill="#BEBEBE"/>
<path fill-rule="evenodd" clip-rule="evenodd" d="M138.427 19.9331V12.5432H140.396V31.9607C138.427 32.5246 136.174 32.8065 133.637 32.8065C131.427 32.8065 129.687 32.2034 128.416 30.9971C127.15 29.7955 126.517 28.0347 126.517 25.7147C126.517 23.598 127.206 21.8764 128.583 20.55C129.96 19.2283 131.707 18.5674 133.824 18.5674C135.543 18.5674 137.077 19.0226 138.427 19.9331ZM138.427 30.5327V21.9365C137.11 20.8227 135.649 20.2658 134.046 20.2658C132.474 20.2658 131.164 20.7395 130.115 21.6869C129.066 22.639 128.541 23.9723 128.541 25.6869C128.541 27.4755 129.057 28.818 130.087 29.7146C131.118 30.6066 132.493 31.0526 134.212 31.0526C135.816 31.0526 137.221 30.8793 138.427 30.5327ZM89.2486 16.4877H83.772V14.7338H96.7771V16.4877H91.3005V32.5292H89.2486V16.4877ZM98.2814 32.5292V18.8377H99.9521L100.119 21.3611C100.719 20.4091 101.496 19.7066 102.448 19.2537C103.395 18.7962 104.37 18.5674 105.373 18.5674C107.056 18.5674 108.38 19.1705 109.345 20.3767L107.973 21.6315C107.229 20.758 106.254 20.3213 105.047 20.3213C103.148 20.3213 101.551 21.3057 100.257 23.2745V32.5292H98.2814ZM111.862 19.6904L112.382 21.3334C114.046 20.6402 115.698 20.2935 117.339 20.2935C118.817 20.2935 119.85 20.5316 120.437 21.0076C121.02 21.479 121.311 22.2531 121.311 23.3299V24.3421C117.443 24.453 114.367 24.855 112.084 25.5483C111.298 26.4634 110.905 27.5217 110.905 28.7233C110.905 30.022 111.298 31.0272 112.084 31.7389C112.869 32.4506 114.055 32.8065 115.64 32.8065C118.233 32.8065 120.259 32.0208 121.72 30.4495C121.794 31.3091 121.981 31.9168 122.281 32.2727C122.586 32.6285 123.021 32.8065 123.585 32.8065C124.098 32.8065 124.599 32.714 125.089 32.5292V31.1358C124.377 31.1173 123.894 30.9717 123.64 30.699C123.386 30.4264 123.259 29.9249 123.259 29.1947V23.2467C123.259 21.6246 122.792 20.4391 121.858 19.6904C120.929 18.9417 119.469 18.5674 117.477 18.5674C115.49 18.5674 113.618 18.9417 111.862 19.6904ZM121.311 25.7978V28.9729C119.887 30.3778 118.062 31.0803 115.834 31.0803C113.898 31.0803 112.93 30.2415 112.93 28.5639C112.93 27.8521 113.168 27.2213 113.644 26.6713C115.672 26.1445 118.228 25.8533 121.311 25.7978ZM143.959 18.8377V32.5292H145.928V18.8377H143.959ZM144.943 13.0076C144.467 13.0076 144.088 13.1578 143.806 13.4582C143.524 13.7586 143.383 14.1283 143.383 14.5674C143.383 14.988 143.529 15.3531 143.82 15.6627C144.111 15.9724 144.486 16.1272 144.943 16.1272C145.401 16.1272 145.775 15.9724 146.066 15.6627C146.357 15.3531 146.503 14.988 146.503 14.5674C146.503 14.1283 146.362 13.7586 146.08 13.4582C145.798 13.1578 145.419 13.0076 144.943 13.0076ZM149.491 32.5292V18.8377H151.134L151.349 21.3057C152.555 19.4801 154.399 18.5674 156.881 18.5674C158.725 18.5674 160.139 19.0781 161.123 20.0994C162.112 21.1208 162.607 22.5997 162.607 24.5362V32.5292H160.631V24.5084C160.631 21.68 159.381 20.2658 156.881 20.2658C155.624 20.2658 154.565 20.5131 153.706 21.0076C152.846 21.4975 152.097 22.2623 151.46 23.3022V32.5292H149.491ZM179.966 18.5674H172.624C170.674 18.5674 169.156 18.9972 168.07 19.8568C166.984 20.7118 166.441 21.8695 166.441 23.3299C166.441 24.5362 166.806 25.5691 167.536 26.4287C166.348 27.1404 165.754 28.0971 165.754 29.2987C165.754 30.4864 166.265 31.3276 167.286 31.8221C166.029 32.6586 165.401 33.8001 165.401 35.2467C165.401 36.5777 165.93 37.6175 166.988 38.3662C168.047 39.1149 169.56 39.4893 171.529 39.4893C172.462 39.4893 173.354 39.4107 174.205 39.2536C175.051 39.1011 175.885 38.8515 176.707 38.5049C177.53 38.1583 178.186 37.6406 178.676 36.952C179.171 36.268 179.418 35.4523 179.418 34.5049C179.418 33.3911 179.053 32.3605 178.323 31.4131C176.936 31.0618 175.42 30.8862 173.775 30.8862H170.163C169.23 30.8862 168.546 30.7083 168.111 30.3524C167.672 29.9966 167.453 29.5552 167.453 29.0283C167.453 28.2427 167.873 27.6765 168.714 27.3299C169.68 27.8429 170.912 28.0994 172.409 28.0994C174.272 28.0994 175.737 27.6511 176.804 26.7545C177.872 25.8579 178.406 24.7164 178.406 23.3299C178.406 21.888 177.747 20.7649 176.43 19.9608H179.966V18.5674ZM170.628 32.5292H173.997C175.055 32.5292 176.095 32.6401 177.116 32.8619C177.481 33.3888 177.664 33.9642 177.664 34.5881C177.664 35.2259 177.463 35.7782 177.061 36.2449C176.659 36.7071 176.13 37.0491 175.473 37.2709C174.817 37.4881 174.193 37.643 173.602 37.7354C173.005 37.8278 172.407 37.874 171.806 37.874C168.7 37.874 167.148 36.8966 167.148 34.9416C167.148 33.7724 167.686 32.9243 168.763 32.3975C169.461 32.4853 170.082 32.5292 170.628 32.5292ZM168.215 23.3299C168.215 22.2901 168.59 21.4836 169.338 20.9105C170.087 20.3328 171.111 20.044 172.409 20.044C173.629 20.044 174.628 20.3282 175.404 20.8967C176.181 21.4605 176.569 22.2716 176.569 23.3299C176.569 24.3698 176.19 25.1647 175.432 25.7147C174.674 26.26 173.666 26.5327 172.409 26.5327C171.06 26.5327 170.022 26.26 169.297 25.7147C168.576 25.1647 168.215 24.3698 168.215 23.3299ZM84.4513 57.2847V39.4893H86.642L98.9677 54.8514L98.8568 49.4026V39.4893H100.805V57.2847H98.531L86.2052 41.8185L86.3993 48.1131V57.2847H84.4513ZM105.54 50.8792H117.04C117.188 50.2968 117.262 49.6498 117.262 48.9381C117.262 47.2374 116.731 45.8763 115.668 44.8549C114.609 43.8336 113.04 43.3229 110.961 43.3229C108.826 43.3229 107.055 43.9838 105.651 45.3055C104.246 46.6319 103.543 48.3535 103.543 50.4701C103.543 52.6608 104.204 54.3893 105.526 55.6556C106.848 56.9265 108.724 57.562 111.155 57.562C113.309 57.562 115.125 57.2246 116.604 56.5498L116.028 54.8237C114.748 55.4984 113.158 55.8358 111.259 55.8358C109.674 55.8358 108.347 55.4199 107.28 54.588C106.212 53.7561 105.632 52.5198 105.54 50.8792ZM115.37 49.2085H105.567C105.711 47.8959 106.281 46.8699 107.28 46.1305C108.273 45.391 109.426 45.0213 110.739 45.0213C112.347 45.0213 113.521 45.3448 114.261 45.9918C115 46.6389 115.37 47.7111 115.37 49.2085ZM120.001 51.5932V43.5932H121.969V51.6209C121.969 52.9704 122.284 54.0149 122.912 54.7544C123.541 55.4938 124.449 55.8635 125.637 55.8635C126.88 55.8635 127.908 55.6163 128.722 55.1218C129.53 54.6319 130.265 53.8555 130.926 52.7925V43.5932H132.895V57.2847H131.252L131.03 54.8791C129.736 56.6677 127.938 57.562 125.637 57.562C121.879 57.562 120.001 55.5724 120.001 51.5932ZM136.451 43.5932V57.2847H138.427V48.03C139.721 46.0612 141.318 45.0768 143.217 45.0768C144.423 45.0768 145.401 45.5135 146.149 46.387L147.515 45.1253C146.549 43.9237 145.227 43.3229 143.55 43.3229C142.542 43.3229 141.565 43.5516 140.617 44.0092C139.665 44.4621 138.889 45.1646 138.288 46.1166L138.122 43.5932H136.451ZM161.207 45.2778C162.648 46.5857 163.369 48.3073 163.369 50.4424C163.369 52.5776 162.648 54.2968 161.207 55.6001C159.765 56.908 157.958 57.562 155.785 57.562C153.613 57.562 151.806 56.908 150.364 55.6001C148.922 54.2968 148.201 52.5776 148.201 50.4424C148.201 48.3073 148.922 46.5857 150.364 45.2778C151.806 43.9745 153.613 43.3229 155.785 43.3229C157.958 43.3229 159.765 43.9745 161.207 45.2778ZM151.751 46.4702C150.716 47.4731 150.198 48.7971 150.198 50.4424C150.198 52.0831 150.716 53.4072 151.751 54.4147C152.781 55.4176 154.126 55.919 155.785 55.919C157.449 55.919 158.796 55.4176 159.827 54.4147C160.858 53.4072 161.373 52.0831 161.373 50.4424C161.373 48.7971 160.858 47.4731 159.827 46.4702C158.796 45.4673 157.449 44.9659 155.785 44.9659C154.126 44.9659 152.781 45.4673 151.751 46.4702ZM166.108 43.5932V57.2847H168.083V48.0577C168.721 47.0178 169.47 46.2506 170.33 45.7561C171.185 45.2663 172.243 45.0213 173.505 45.0213C176.005 45.0213 177.255 46.4355 177.255 49.2639V57.2847H179.224V49.2916C179.224 47.3552 178.732 45.8763 177.747 44.8549C176.763 43.8336 175.349 43.3229 173.505 43.3229C171.023 43.3229 169.179 44.2356 167.973 46.0612L167.751 43.5932H166.108Z" fill="#BEBEBE"/>
<path d="M66.4402 34.998C66.4402 52.3636 52.3626 66.4387 34.9995 66.4387C17.6363 66.4387 3.55957 52.3636 3.55957 34.998C3.55957 17.6365 17.6363 3.56134 34.9995 3.56134C52.3626 3.56134 66.4402 17.6365 66.4402 34.998Z" fill="#000001"/>
<path fill-rule="evenodd" clip-rule="evenodd" d="M22.9268 15.3442C20.6675 15.3442 18.836 17.1757 18.836 19.435C18.836 20.9785 19.6908 22.3223 20.9528 23.0189L17.802 31.0483C17.4636 30.9575 17.1078 30.9092 16.7407 30.9092C14.4814 30.9092 12.6499 32.7407 12.6499 35C12.6499 37.2593 14.4814 39.0908 16.7407 39.0908C17.1078 39.0908 17.4636 39.0425 17.8021 38.9517L20.9528 46.9811C19.6908 47.6777 18.836 49.0215 18.836 50.565C18.836 52.8243 20.6675 54.6558 22.9268 54.6558C25.1861 54.6558 27.0176 52.8243 27.0176 50.565C27.0176 50.0456 26.9208 49.5487 26.7442 49.0913L30.3729 47.2177L31.671 48.3324C31.2521 48.9744 31.0087 49.7413 31.0087 50.565C31.0087 52.8243 32.8401 54.6558 35.0995 54.6558C37.3588 54.6558 39.1903 52.8243 39.1903 50.565C39.1903 49.6944 38.9183 48.8874 38.4547 48.2241L39.655 47.1934L43.4365 49.1396C43.2715 49.5834 43.1813 50.0638 43.1813 50.565C43.1813 52.8243 45.0128 54.6558 47.2721 54.6558C49.5314 54.6558 51.3629 52.8243 51.3629 50.565C51.3629 48.98 50.4615 47.6055 49.1433 46.9262L52.2198 38.9577C52.5515 39.0445 52.8997 39.0908 53.2587 39.0908C55.518 39.0908 57.3495 37.2593 57.3495 35C57.3495 32.7407 55.518 30.9092 53.2587 30.9092C52.8997 30.9092 52.5515 30.9555 52.2198 31.0423L49.1433 23.0737C50.4615 22.3945 51.3629 21.02 51.3629 19.435C51.3629 17.1757 49.5314 15.3442 47.2721 15.3442C45.0128 15.3442 43.1813 17.1757 43.1813 19.435C43.1813 19.9363 43.2715 20.4165 43.4365 20.8604L39.6548 22.8066L38.4547 21.7759C38.9183 21.1127 39.1903 20.3056 39.1903 19.435C39.1903 17.1757 37.3588 15.3442 35.0995 15.3442C32.8401 15.3442 31.0087 17.1757 31.0087 19.435C31.0087 20.2587 31.2521 21.0255 31.671 21.6675L30.3729 22.7822L26.7442 20.9086C26.9208 20.4514 27.0176 19.9545 27.0176 19.435C27.0176 17.1757 25.1861 15.3442 22.9268 15.3442ZM19.6342 19.435C19.6342 17.6165 21.1084 16.1424 22.9268 16.1424C24.7453 16.1424 26.2194 17.6165 26.2194 19.435C26.2194 21.2534 24.7453 22.7276 22.9268 22.7276C21.1084 22.7276 19.6342 21.2534 19.6342 19.435ZM51.4711 31.3195L48.4012 23.368C48.0426 23.4708 47.6638 23.5258 47.2721 23.5258C46.8724 23.5258 46.4861 23.4685 46.1209 23.3616L44.6542 27.0994L50.422 32.0524C50.7295 31.7565 51.0832 31.5081 51.4711 31.3195ZM49.9034 32.6591L44.3453 27.8864L43.6566 29.6412L49.8006 32.8135C49.8338 32.7612 49.8681 32.7098 49.9034 32.6591ZM49.4412 33.5263L43.3635 30.3882L42.9776 31.3718C44.2846 32.0546 45.1768 33.4231 45.1768 35C45.1768 36.5769 44.2846 37.9452 42.9776 38.6281L43.3637 39.6118L49.4412 36.4737C49.2646 36.0165 49.1679 35.5194 49.1679 35C49.1679 34.4806 49.2646 33.9837 49.4412 33.5263ZM49.8006 37.1865L43.6568 40.3588L44.3453 42.1136L49.9034 37.3409C49.8681 37.2903 49.8338 37.2388 49.8006 37.1865ZM50.4222 37.9478L44.6542 42.9007L46.1209 46.6385C46.4861 46.5315 46.8724 46.4742 47.2721 46.4742C47.6638 46.4742 48.0426 46.5293 48.4014 46.6321L51.4711 38.6807C51.0832 38.492 50.7295 38.2437 50.4222 37.9478ZM41.086 39.0908C41.4857 39.0908 41.872 39.0335 42.2372 38.9266L42.6507 39.98L38.7814 41.9777L39.9569 38.933C40.3155 39.0357 40.6943 39.0908 41.086 39.0908ZM38.2109 37.9101C38.5052 38.2008 38.8435 38.4475 39.2148 38.6388L37.8866 42.0795L35.6279 40.1401L38.2109 37.9101ZM36.9952 35C36.9952 35.8513 37.2552 36.6417 37.7 37.2964L35.0157 39.614L32.3055 37.2871C32.7465 36.6341 33.0042 35.8471 33.0042 35C33.0042 34.1529 32.7465 33.3659 32.3055 32.7129L35.0157 30.386L37.7 32.7036C37.2552 33.3583 36.9952 34.1487 36.9952 35ZM39.2148 31.3612C38.8435 31.5526 38.5052 31.7992 38.2109 32.0901L35.6279 29.8602L37.8864 27.9207L39.2148 31.3612ZM41.086 30.9092C40.6943 30.9092 40.3155 30.9643 39.9569 31.067L38.7814 28.0223L42.6505 30.02L42.2372 31.0734C41.872 30.9665 41.4857 30.9092 41.086 30.9092ZM31.7965 32.0979L34.4046 29.8584L32.1247 27.89L30.7846 31.3612C31.1593 31.5543 31.5003 31.8036 31.7965 32.0979ZM30.0424 31.067L31.2064 28.0524L27.3806 30.0214L27.7843 31.067C28.1429 30.9643 28.5216 30.9092 28.9134 30.9092C29.3051 30.9092 29.6838 30.9643 30.0424 31.067ZM27.0422 31.3612L26.6667 30.3888L20.5601 33.5317C20.7354 33.9875 20.8315 34.4826 20.8315 35C20.8315 35.5174 20.7354 36.0127 20.5601 36.4683L26.6668 39.6112L27.0422 38.6388C25.724 37.9596 24.8226 36.585 24.8226 35C24.8226 33.415 25.724 32.0405 27.0422 31.3612ZM27.7843 38.933L27.3806 39.9786L31.2064 41.9476L30.0424 38.933C29.6838 39.0357 29.3051 39.0908 28.9134 39.0908C28.5216 39.0908 28.1429 39.0357 27.7843 38.933ZM30.7846 38.6388L32.1247 42.11L34.4046 40.1417L31.7965 37.9021C31.5003 38.1964 31.1593 38.4457 30.7846 38.6388ZM19.5772 32.0522C19.2753 31.7617 18.9289 31.517 18.5491 31.3297L21.6865 23.3344C22.0777 23.4587 22.4944 23.5258 22.9268 23.5258C23.2858 23.5258 23.634 23.4796 23.9657 23.3927L25.384 27.0662L19.5772 32.0522ZM20.2018 32.8183C20.1677 32.7644 20.1324 32.7111 20.0959 32.6591L25.689 27.8563L26.3776 29.6399L20.2018 32.8183ZM21.6865 46.6656L18.5491 38.6704C18.9289 38.483 19.2753 38.2383 19.5773 37.9478L25.384 42.934L23.9658 46.6073C23.634 46.5205 23.2858 46.4742 22.9268 46.4742C22.4944 46.4742 22.0777 46.5413 21.6865 46.6656ZM25.689 42.1438L20.0959 37.3409C20.1324 37.2889 20.1677 37.2356 20.2018 37.1817L26.3776 40.3602L25.689 42.1438ZM26.3849 21.6215C26.3497 21.677 26.3132 21.7316 26.2755 21.7853L28.8974 24.0491L29.7196 23.3432L26.3849 21.6215ZM25.7551 22.3906C25.4496 22.683 25.0988 22.9285 24.7144 23.1156L26.0265 26.5144L28.2852 24.5749L25.7551 22.3906ZM32.1704 22.2907L31.138 23.1773L32.7643 24.017L33.1455 23.0298C32.7841 22.8329 32.4554 22.5831 32.1704 22.2907ZM33.8808 23.3412L33.4777 24.3854L35.03 25.1869L36.5324 24.4136L36.1383 23.3927C35.8067 23.4796 35.4585 23.5258 35.0995 23.5258C34.675 23.5258 34.2657 23.4612 33.8808 23.3412ZM36.887 23.1156L37.2462 24.0462L38.8888 23.2009L37.9361 22.3827C37.6286 22.6786 37.275 22.9269 36.887 23.1156ZM43.7867 21.5778L40.3086 23.3679L41.1359 24.0783L43.8799 21.7221C43.8478 21.6747 43.8169 21.6266 43.7867 21.5778ZM44.389 22.337L41.7485 24.6043L44.0128 26.5487L45.3806 23.0631C45.0138 22.8715 44.6797 22.626 44.389 22.337ZM31.8069 19.435C31.8069 17.6165 33.2809 16.1424 35.0995 16.1424C36.918 16.1424 38.3921 17.6165 38.3921 19.435C38.3921 21.2534 36.918 22.7276 35.0995 22.7276C33.2809 22.7276 31.8069 21.2534 31.8069 19.435ZM47.2721 16.1424C45.4536 16.1424 43.9795 17.6165 43.9795 19.435C43.9795 21.2534 45.4536 22.7276 47.2721 22.7276C49.0906 22.7276 50.5647 21.2534 50.5647 19.435C50.5647 17.6165 49.0906 16.1424 47.2721 16.1424ZM31.2481 27.1333L27.0915 29.2725L26.3316 27.3045L28.896 25.1024L31.2481 27.1333ZM31.7883 26.545L29.5084 24.5766L30.4846 23.7383L32.4752 24.7661L31.7883 26.545ZM32.7066 26.3826L33.1886 25.1344L34.1586 25.6353L32.7066 26.3826ZM32.6649 27.3017L35.0294 26.0849L37.3835 27.3005L35.017 29.3325L32.6649 27.3017ZM40.5233 24.6043L38.224 26.5787L37.5354 24.7951L39.5425 23.7622L40.5233 24.6043ZM37.2796 26.3484L36.8216 25.1625L35.9007 25.6365L37.2796 26.3484ZM38.8019 27.1345L41.1359 25.1304L43.7039 27.3356L42.9436 29.2731L38.8019 27.1345ZM45.3806 46.9368L44.0128 43.4514L41.7485 45.3956L44.389 47.6629C44.6797 47.374 45.0138 47.1283 45.3806 46.9368ZM43.8799 48.278L41.1359 45.9217L40.3086 46.6321L43.7867 48.4222C43.8169 48.3734 43.8478 48.3253 43.8799 48.278ZM33.1455 46.9701C32.7841 47.1671 32.4554 47.4169 32.1704 47.7092L31.138 46.8226L32.7643 45.9829L33.1455 46.9701ZM35.0995 46.4742C34.675 46.4742 34.2657 46.5389 33.8808 46.6588L33.4777 45.6146L35.03 44.8132L36.5324 45.5864L36.1383 46.6073C35.8067 46.5205 35.4585 46.4742 35.0995 46.4742ZM37.9361 47.6175C37.6286 47.3215 37.275 47.0733 36.887 46.8845L37.2462 45.9538L38.889 46.7991L37.9361 47.6175ZM26.3849 48.3785L29.7196 46.6568L28.8976 45.951L26.2755 48.2147C26.3133 48.2684 26.3497 48.3231 26.3849 48.3785ZM25.7552 47.6095L28.2852 45.4252L26.0266 43.4857L24.7144 46.8845C25.0989 47.0715 25.4496 47.3171 25.7552 47.6095ZM27.0915 40.7275L31.2481 42.8669L28.896 44.8976L26.3316 42.6955L27.0915 40.7275ZM29.5084 45.4234L31.7883 43.455L32.4752 45.234L30.4846 46.2617L29.5084 45.4234ZM33.1886 44.8656L32.7066 43.6174L34.1586 44.3648L33.1886 44.8656ZM35.0294 43.9152L32.6649 42.6983L35.017 40.6675L37.3835 42.6995L35.0294 43.9152ZM38.224 43.4213L40.5233 45.3956L39.5425 46.2379L37.5354 45.2049L38.224 43.4213ZM36.8216 44.8375L37.2796 43.6516L35.9007 44.3636L36.8216 44.8375ZM41.1359 44.8696L38.8019 42.8655L42.9438 40.7269L43.7039 42.6644L41.1359 44.8696ZM19.6342 50.565C19.6342 48.7465 21.1084 47.2724 22.9268 47.2724C24.7453 47.2724 26.2194 48.7465 26.2194 50.565C26.2194 52.3835 24.7453 53.8576 22.9268 53.8576C21.1084 53.8576 19.6342 52.3835 19.6342 50.565ZM35.0995 47.2724C33.2809 47.2724 31.8069 48.7465 31.8069 50.565C31.8069 52.3835 33.2809 53.8576 35.0995 53.8576C36.918 53.8576 38.3921 52.3835 38.3921 50.565C38.3921 48.7465 36.918 47.2724 35.0995 47.2724ZM43.9795 50.565C43.9795 48.7465 45.4536 47.2724 47.2721 47.2724C49.0906 47.2724 50.5647 48.7465 50.5647 50.565C50.5647 52.3835 49.0906 53.8576 47.2721 53.8576C45.4536 53.8576 43.9795 52.3835 43.9795 50.565ZM16.7407 31.7074C14.9223 31.7074 13.4481 33.1815 13.4481 35C13.4481 36.8185 14.9223 38.2926 16.7407 38.2926C18.5592 38.2926 20.0333 36.8185 20.0333 35C20.0333 33.1815 18.5592 31.7074 16.7407 31.7074ZM25.6208 35C25.6208 33.1815 27.0948 31.7074 28.9134 31.7074C30.7319 31.7074 32.206 33.1815 32.206 35C32.206 36.8185 30.7319 38.2926 28.9134 38.2926C27.0948 38.2926 25.6208 36.8185 25.6208 35ZM41.086 31.7074C39.2675 31.7074 37.7934 33.1815 37.7934 35C37.7934 36.8185 39.2675 38.2926 41.086 38.2926C42.9045 38.2926 44.3786 36.8185 44.3786 35C44.3786 33.1815 42.9045 31.7074 41.086 31.7074ZM49.9661 35C49.9661 33.1815 51.4402 31.7074 53.2587 31.7074C55.0772 31.7074 56.5513 33.1815 56.5513 35C56.5513 36.8185 55.0772 38.2926 53.2587 38.2926C51.4402 38.2926 49.9661 36.8185 49.9661 35Z" fill="white"/>
</svg>
